<?xml version="1.0" encoding="UTF-8" standalone="no"?>
<svg
   xmlns:dc="http://purl.org/dc/elements/1.1/"
   xmlns:cc="http://creativecommons.org/ns#"
   xmlns:rdf="http://www.w3.org/1999/02/22-rdf-syntax-ns#"
   xmlns:svg="http://www.w3.org/2000/svg"
   xmlns="http://www.w3.org/2000/svg"
   xmlns:sodipodi="http://sodipodi.sourceforge.net/DTD/sodipodi-0.dtd"
   xmlns:inkscape="http://www.inkscape.org/namespaces/inkscape"
   id="svg16"
   xml:space="preserve"
   viewBox="0.102 0.51 48.00007 48.000001"
   version="1.1"
   enable-background="new 0.102 0.51 175 23.233"
   height="48"
   width="48"
   sodipodi:docname="favicon.svg"
   inkscape:version="0.92.3 (2405546, 2018-03-11)"><sodipodi:namedview
   pagecolor="#ffffff"
   bordercolor="#666666"
   borderopacity="1"
   objecttolerance="10"
   gridtolerance="10"
   guidetolerance="10"
   inkscape:pageopacity="0"
   inkscape:pageshadow="2"
   inkscape:window-width="1366"
   inkscape:window-height="707"
   id="namedview12"
   showgrid="false"
   inkscape:zoom="20.85965"
   inkscape:cx="41.721078"
   inkscape:cy="37.487894"
   inkscape:window-x="0"
   inkscape:window-y="0"
   inkscape:window-maximized="1"
   inkscape:current-layer="svg16" /><defs
   id="defs20" /><metadata
   id="metadata2"><rdf:RDF><cc:Work
       rdf:about=""><dc:format>image/svg+xml</dc:format><dc:type
         rdf:resource="http://purl.org/dc/dcmitype/StillImage" /><dc:title></dc:title></cc:Work></rdf:RDF></metadata>

<rect
   y="0.50995022"
   x="0.102"
   height="48.000069"
   width="48.000069"
   id="rect4530"
   style="fill:#367fa9;fill-opacity:1;stroke-width:0.74624705"
   ry="6.0000086" /><g
   style="clip-rule:evenodd;fill:#ffffff;fill-rule:evenodd"
   id="g14"
   transform="translate(-11.536654,-18.1085)"><path
     inkscape:connector-curvature="0"
     id="path4"
     d="m 26.923,38.822 c -1.637,5.394 0.139,11 5.241,14.354 l -10.65,0.047 C 18.916,48.832 17.89,44.097 18.773,38.874 Z m -5.744,-6.808 10.968,0.036 c -3.02,2.209 -4.094,3.98 -4.75,5.394 l -8.34,0.006 c 0.554,-1.754 1.01,-3.594 2.122,-5.436 z" /><path
     inkscape:connector-curvature="0"
     id="path12"
     d="m 43.388,43.381 h -6.136 l 2.975,3.627 c -0.506,0.172 -1.056,0.259 -1.604,0.259 -2.67,0 -4.835,-2.044 -4.835,-4.567 0,-2.521 2.165,-4.581 4.835,-4.581 2.657,0 4.807,2.06 4.807,4.581 0,0.231 -0.013,0.465 -0.042,0.681 M 38.523,32.014 c 6.149,0 10.755,4.795 10.755,10.625 0,1.841 -0.316,3.408 -1.197,4.916 l 4.734,5.668 H 45.25 l -1.141,-1.446 c -1.66,0.898 -3.55,1.422 -5.586,1.422 -6.164,0 -10.422,-4.718 -10.422,-10.56 0,-5.829 4.258,-10.625 10.422,-10.625 z" /></g></svg>