<?xml version="1.0" encoding="UTF-8" standalone="no"?>
<!-- Creator: CorelDRAW 2017 -->

<svg
   xml:space="preserve"
   width="20.71133mm"
   height="5.2917762mm"
   version="1.1"
   style="clip-rule:evenodd;fill-rule:evenodd;image-rendering:optimizeQuality;shape-rendering:geometricPrecision;text-rendering:geometricPrecision"
   viewBox="0 0 604.37183 154.42001"
   id="svg964"
   xmlns="http://www.w3.org/2000/svg"
   xmlns:svg="http://www.w3.org/2000/svg">
 <defs
   id="defs948">
  <style
   type="text/css"
   id="style946">
   <![CDATA[
    .fil0 {fill:#004D81;fill-rule:nonzero}
   ]]>
  </style>
 </defs>
 <g
   id="Vrstva_x0020_1"
   transform="translate(-0.0101035)">
  <metadata
   id="CorelCorpID_0Corel-Layer" />
  <polygon
   class="fil0"
   points="41.57,0 41.57,154.42 0,154.42 0,0 "
   id="polygon951"
   style="fill:#ffffff;fill-opacity:1" />
  <path
   id="1"
   class="fil0"
   d="m 211.2,154.42 -8.31,-9.74 c -5.86,3.17 -11.96,5.58 -18.29,7.25 -6.34,1.66 -12.59,2.49 -18.77,2.49 h -21.38 c -11.88,0 -22.81,-1.86 -32.78,-5.58 C 101.69,145.12 93.1,139.89 85.89,133.16 78.68,126.43 73.02,118.31 68.9,108.81 64.78,99.31 62.72,88.77 62.72,77.21 62.72,65.65 64.78,55.16 68.9,45.73 73.02,36.3 78.68,28.19 85.89,21.38 93.09,14.57 101.69,9.3 111.67,5.58 121.65,1.86 132.58,0 144.45,0 h 21.38 c 11.88,0 22.81,1.94 32.78,5.82 9.98,3.88 18.57,9.15 25.78,15.8 7.2,6.65 12.87,14.49 16.99,23.52 4.12,9.03 6.17,18.69 6.17,28.98 0,9.82 -1.74,18.97 -5.23,27.44 -3.48,8.47 -8.23,16.11 -14.25,22.92 l 29.46,29.93 H 211.2 Z m -40.86,-37.54 c 2.38,0 4.91,-0.24 7.6,-0.71 L 145.39,82.91 h 46.32 l 11.64,14.02 c 1.27,-2.69 2.3,-5.62 3.09,-8.79 0.79,-3.17 1.19,-6.57 1.19,-10.22 0,-5.54 -0.91,-10.65 -2.73,-15.32 -1.82,-4.67 -4.39,-8.71 -7.72,-12.12 -3.33,-3.41 -7.29,-6.06 -11.88,-7.96 -4.59,-1.9 -9.58,-2.85 -14.97,-2.85 h -28.75 c -5.38,0 -10.37,0.95 -14.97,2.85 -4.59,1.9 -8.55,4.56 -11.88,7.96 -3.32,3.41 -5.94,7.48 -7.84,12.24 -1.9,4.75 -2.85,9.98 -2.85,15.68 0,5.7 0.95,10.93 2.85,15.68 1.9,4.75 4.51,8.83 7.84,12.24 3.33,3.41 7.29,6.02 11.88,7.84 4.59,1.82 9.58,2.73 14.97,2.73 h 28.75 z"
   style="fill:#ffffff;fill-opacity:1" />
  <path
   id="2"
   class="fil0"
   d="m 391.76,154.42 -30.88,-39.2 H 324.29 V 79.11 h 53.22 c 5.7,0 10.37,-1.78 14.02,-5.35 3.64,-3.56 5.47,-8.35 5.47,-14.37 0,-6.02 -1.82,-10.81 -5.47,-14.37 -3.64,-3.56 -8.31,-5.34 -14.02,-5.34 H 312.42 V 154.42 H 271.08 V 0 h 106.43 c 8.87,0 17.02,1.38 24.47,4.16 7.44,2.77 13.9,6.69 19.36,11.76 5.47,5.07 9.7,11.17 12.71,18.29 3.01,7.13 4.51,14.97 4.51,23.52 0,11.88 -2.85,22.25 -8.55,31.12 -5.7,8.87 -13.38,15.6 -23.04,20.19 l 38.96,45.38 z"
   style="fill:#ffffff;fill-opacity:1" />
  <path
   id="3"
   class="fil0"
   d="M 515.76,95.5 V 60.58 h 87.19 V 95.5 Z m -55.35,58.92 V 0 H 604.38 V 39.67 H 501.99 v 114.74 h -41.57 z"
   style="fill:#ffffff;fill-opacity:1" />
  
  
  
  
  
  
  
 </g>
</svg>
