<?xml version="1.0" encoding="UTF-8"?>
<svg width="8.9135mm" height="10mm" version="1.1" viewBox="0 0 8.9134903 10.0001" xmlns="http://www.w3.org/2000/svg" xmlns:cc="http://creativecommons.org/ns#" xmlns:dc="http://purl.org/dc/elements/1.1/" xmlns:rdf="http://www.w3.org/1999/02/22-rdf-syntax-ns#">
	<metadata>
		<rdf:RDF>
			<cc:Work rdf:about="">
				<dc:format>image/svg+xml</dc:format>
				<dc:type rdf:resource="http://purl.org/dc/dcmitype/StillImage"/>
				<dc:title/>
			</cc:Work>
		</rdf:RDF>
	</metadata>
	<g transform="translate(-188.31 -153.66)">
		<path d="m197.22 156.36-0.72739-0.603-2.135 2.5756 0.72732 0.60296zm-4.3253 5.4419c-0.12827 2e-3 -0.25509-3e-3 -0.37997-0.0142l-1.3923 0.6992-1.0139-0.81597 0.33871 0.28077-1.4133 1.7049-0.72739-0.60301 1.4086-1.6992-0.62061-0.49949 0.41779-1.5184c-0.0902-0.29902-0.14118-0.61532-0.14689-0.94301-0.0142-0.81721 0.25541-1.5732 0.71779-2.1742l5.3154 4.4503c-0.62078 0.68111-1.5098 1.115-2.5039 1.1323zm1.7914-7.5424-0.72739-0.603-2.135 2.5756 0.72743 0.603z" fill="#1a1a18" fill-rule="evenodd"/>
	</g>
</svg>
