<?xml version="1.0" standalone="no"?>
<!DOCTYPE svg PUBLIC "-//W3C//DTD SVG 20010904//EN"
 "http://www.w3.org/TR/2001/REC-SVG-20010904/DTD/svg10.dtd">
<svg version="1.0" xmlns="http://www.w3.org/2000/svg"
 width="700.000000pt" height="700.000000pt" viewBox="0 0 700.000000 700.000000"
 preserveAspectRatio="xMidYMid meet">
<metadata>
Created by potrace 1.11, written by Peter Selinger 2001-2013
</metadata>
<g transform="translate(0.000000,700.000000) scale(0.100000,-0.100000)"
fill="#000000" stroke="none">
<path d="M740 6988 c-342 -49 -636 -322 -717 -668 -17 -71 -18 -229 -18 -2820
0 -2591 1 -2749 18 -2820 75 -317 319 -568 638 -653 l84 -22 2755 0 2755 0 84
22 c319 85 563 336 638 653 17 71 18 229 18 2820 0 2591 -1 2749 -18 2820 -74
315 -313 562 -633 652 l-79 23 -2730 1 c-1637 1 -2756 -2 -2795 -8z m1800
-1947 l445 -6 -65 -49 c-263 -201 -463 -425 -585 -659 l-40 -77 -608 0 -608 0
7 23 c121 388 183 553 259 692 l46 85 352 -1 c194 -1 552 -4 797 -8z m1640
-16 c334 -52 622 -198 859 -435 310 -310 469 -730 448 -1180 -11 -217 -51
-388 -129 -547 -36 -72 -39 -83 -27 -100 8 -10 161 -195 342 -411 180 -215
327 -394 327 -397 0 -3 -247 -5 -549 -5 l-548 0 -83 105 c-45 58 -83 105 -84
105 -2 0 -45 -20 -97 -44 -212 -99 -411 -145 -657 -153 -198 -7 -300 4 -472
48 -259 67 -472 188 -660 378 -136 137 -192 213 -277 379 -261 513 -223 1154
99 1633 38 56 109 141 178 210 198 199 398 313 680 388 189 49 437 59 650 26z
m-1955 -992 c-15 -38 -55 -232 -65 -318 -6 -49 -11 -160 -11 -245 0 -369 110
-708 329 -1017 94 -133 272 -313 411 -416 l104 -77 -319 0 c-176 0 -524 -3
-775 -7 l-456 -6 -58 102 c-194 346 -325 746 -371 1135 -21 174 -21 498 1 681
9 77 19 150 22 163 l5 22 595 0 c563 0 595 -1 588 -17z"/>
<path d="M3752 4130 c-204 -54 -356 -174 -446 -351 -74 -148 -91 -267 -60
-417 63 -312 346 -533 684 -534 100 -1 215 16 226 33 3 5 -91 124 -207 266
l-212 258 446 3 447 2 0 96 c0 189 -56 321 -195 459 -102 103 -185 150 -320
185 -103 26 -261 26 -363 0z"/>
</g>
</svg>
