<?xml version="1.0" encoding="UTF-8"?>
<svg width="52.713" height="21.209" enable-background="new 0.102 0.51 175 23.233" version="1.1" viewBox="0.102 0.51 52.713078 21.209" xml:space="preserve" xmlns="http://www.w3.org/2000/svg" xmlns:cc="http://creativecommons.org/ns#" xmlns:dc="http://purl.org/dc/elements/1.1/" xmlns:rdf="http://www.w3.org/1999/02/22-rdf-syntax-ns#"><metadata><rdf:RDF><cc:Work rdf:about=""><dc:format>image/svg+xml</dc:format><dc:type rdf:resource="http://purl.org/dc/dcmitype/StillImage"/><dc:title/></cc:Work></rdf:RDF></metadata>
	<g transform="translate(0 -31.504)" clip-rule="evenodd" fill="#fff" fill-rule="evenodd"><path d="m26.923 38.822c-1.637 5.394 0.139 11 5.241 14.354l-10.65 0.047c-2.598-4.391-3.624-9.126-2.741-14.349zm-5.744-6.808 10.968 0.036c-3.02 2.209-4.094 3.98-4.75 5.394l-8.34 6e-3c0.554-1.754 1.01-3.594 2.122-5.436z"/><path d="m2.9281 32.05h4.342c-3.816 7.201-3.702 14.229 0 21.112h-4.342c-3.588-6.668-3.944-13.651 0-21.112"/><path d="m16.652 32.05h3.061c-3.815 7.201-3.557 14.218 0.146 21.101l-3.206 0.012c-3.633-6.779-4.025-13.89-1e-3 -21.113"/><path d="m10.587 32.05h3.43c-3.814 7.201-3.701 14.229 0 21.112h-3.43c-3.588-6.668-3.943-13.651 0-21.112"/><path d="m43.388 43.381h-6.136l2.975 3.627c-0.506 0.172-1.056 0.259-1.604 0.259-2.67 0-4.835-2.044-4.835-4.567 0-2.521 2.165-4.581 4.835-4.581 2.657 0 4.807 2.06 4.807 4.581 0 0.231-0.013 0.465-0.042 0.681m-4.865-11.367c6.149 0 10.755 4.795 10.755 10.625 0 1.841-0.316 3.408-1.197 4.916l4.734 5.668h-7.565l-1.141-1.446c-1.66 0.898-3.55 1.422-5.586 1.422-6.164 0-10.422-4.718-10.422-10.56 0-5.829 4.258-10.625 10.422-10.625z"/></g>
</svg>
