<?xml version="1.0" encoding="UTF-8"?>
<svg width="175px" height="23.233px" enable-background="new 0.102 0.51 175 23.233" version="1.1" viewBox="0.102 0.51 175 23.233" xml:space="preserve" xmlns="http://www.w3.org/2000/svg" xmlns:cc="http://creativecommons.org/ns#" xmlns:dc="http://purl.org/dc/elements/1.1/" xmlns:rdf="http://www.w3.org/1999/02/22-rdf-syntax-ns#"><metadata><rdf:RDF><cc:Work rdf:about=""><dc:format>image/svg+xml</dc:format><dc:type rdf:resource="http://purl.org/dc/dcmitype/StillImage"/><dc:title/></cc:Work></rdf:RDF></metadata>
<path transform="translate(.102 .51)" d="m94.414 1.1211c-2.332 0-4.2422 1.9092-4.2422 4.2422v12.725c0 2.334 1.9102 4.2422 4.2422 4.2422h76.346c2.334 0 4.2402-1.9082 4.2402-4.2422v-12.725c0-2.332-1.9062-4.2422-4.2402-4.2422h-76.346zm12.082 4.2852c1.3951 0 2.7302 0.11912 4.0039 0.35547v1.9922c-1.203-0.31514-2.5381-0.47266-4.0039-0.47266-1.7084 0-2.5625 0.55131-2.5625 1.6543v4.4063c0 0.56275 0.23776 0.95022 0.71289 1.1641 0.48524 0.21384 1.1729 0.32227 2.0625 0.32227 0.49535 0 1.0257-0.085082 1.5918-0.25391v-2.5488h-1.6074v-1.7227h3.8672v5.6895c-0.50546 0.20259-1.1529 0.3708-1.9414 0.50586-0.7784 0.13506-1.4972 0.20312-2.1543 0.20312-0.54589 0-1.0396-0.02771-1.4844-0.083984-0.43469-0.04502-0.87551-0.13447-1.3203-0.26953-0.4347-0.14631-0.80415-0.3335-1.1074-0.55859-0.29316-0.2251-0.52897-0.52749-0.71093-0.91016-0.18197-0.38267-0.27344-0.83384-0.27344-1.3516v-4.5586c0-0.574 0.10607-1.0806 0.31836-1.5195 0.21229-0.43894 0.47924-0.78169 0.80273-1.0293 0.3235-0.24761 0.71306-0.44985 1.168-0.60742 0.45491-0.16882 0.89021-0.27529 1.3047-0.32031 0.42458-0.056275 0.86896-0.085938 1.334-0.085938zm15.111 0.5918h2.2129v2.3633h2.0176v1.5195h-2.0176v3.8496c0 0.56275 0.07688 0.94585 0.22852 1.1484 0.15164 0.19133 0.48443 0.28516 1 0.28516 0.17185 0 0.43524-0.027709 0.78906-0.083984v1.5371c-0.42458 0.056274-0.83426 0.083984-1.2285 0.083984-0.34372 0-0.64732-0.017017-0.91016-0.050781-0.25273-0.02251-0.51968-0.084253-0.80274-0.18555-0.27294-0.11255-0.50162-0.25305-0.68359-0.42188-0.17185-0.18008-0.31814-0.42705-0.43945-0.74219-0.1112-0.32639-0.16602-0.7095-0.16602-1.1484v-4.2715h-1.4863v-1.5195h1.4863v-2.3633zm-6.2246 2.1953c1.3546 0 2.2946 0.18523 2.8203 0.55664 0.52568 0.36016 0.78907 1.0797 0.78907 2.1602v5.623h-2.168v-0.74414c-0.16175 0.32639-0.39399 0.56267-0.69727 0.70898-0.30327 0.13506-0.85923 0.20312-1.668 0.20312-0.99069 0-1.6492-0.16821-1.9726-0.50586-0.32349-0.33765-0.48438-1.0421-0.48438-2.1113 0-0.96792 0.1664-1.6364 0.5-2.0078 0.33361-0.38267 0.92979-0.57422 1.7891-0.57422h2.4863v-0.55664c0-0.49522-0.10606-0.8229-0.31836-0.98047-0.20218-0.16882-0.63553-0.25195-1.3027-0.25195-0.62677 0-1.4863 0.066113-2.5781 0.20117v-1.5527c0.83906-0.11255 1.7736-0.16797 2.8047-0.16797zm15.129 0c1.1322 0 1.9772 0.21294 2.5332 0.64062 0.55601 0.42769 0.83399 1.1876 0.83399 2.2793v1.9922h-4.7617v0.74219c0 0.46145 0.14629 0.79983 0.43945 1.0137 0.29317 0.20259 0.84361 0.30273 1.6523 0.30273 0.72786 0 1.5472-0.11716 2.457-0.35352v1.5703c-0.93005 0.21384-1.8902 0.32031-2.8809 0.32031-2.5981 0-3.8965-0.88337-3.8965-2.6504v-2.9375c0-1.0467 0.30166-1.7959 0.90821-2.2461 0.60654-0.4502 1.5118-0.67383 2.7148-0.67383zm20.529 0c1.3546 0 2.2946 0.18523 2.8203 0.55664 0.52567 0.36016 0.78906 1.0797 0.78906 2.1602v5.623h-2.168v-0.74414c-0.16174 0.32639-0.39399 0.56267-0.69726 0.70898-0.30328 0.13506-0.85924 0.20312-1.668 0.20312-0.9907 0-1.6492-0.16821-1.9727-0.50586-0.32349-0.33765-0.48437-1.0421-0.48437-2.1113 0-0.96792 0.16639-1.6364 0.5-2.0078 0.3336-0.38267 0.92978-0.57422 1.7891-0.57422h2.4883v-0.55664c0-0.49522-0.10607-0.8229-0.31836-0.98047-0.20218-0.16882-0.63748-0.25195-1.3047-0.25195-0.62676 0-1.4863 0.066113-2.5781 0.20117v-1.5527c0.83906-0.11255 1.7736-0.16797 2.8047-0.16797zm-16.32 0.16797h2.2598l1.3652 5.9258 1.4551-5.9258h2.1699l1.5156 5.9258 1.3047-5.9258h2.1523l-2.3965 8.1719h-2.2442l-1.4551-5.5215-1.4258 5.5215h-2.2442l-2.457-8.1719zm21.029 0h2.4102l1.6523 5.7734 1.502-5.7734h2.2891l-4.0176 11.684h-2.2441l1.334-3.5801-2.9258-8.1035zm-25.268 1.3516c-0.53578 0-0.89972 0.072436-1.0918 0.21875-0.18196 0.13506-0.27343 0.33098-0.27343 0.58984v1.1816h2.6543v-1.1816c0-0.25886-0.09698-0.45478-0.28906-0.58984-0.18196-0.14631-0.51476-0.21875-1-0.21875zm-15.221 3.1387c-0.48524 0-0.78885 0.061743-0.91016 0.18555-0.12131 0.1238-0.18164 0.45586-0.18164 0.99609 0 0.52898 0.06033 0.85034 0.18164 0.96289 0.13142 0.11255 0.45514 0.16797 0.97071 0.16797h0.56054c0.12131-0.011254 0.25301-0.026318 0.39453-0.048828 0.14153-0.022509 0.23852-0.056542 0.28907-0.10156 0.06065-0.056275 0.10995-0.13066 0.15039-0.2207 0.04043-0.09004 0.06054-0.2072 0.06054-0.35352v-1.5879h-1.5156zm35.658 0c-0.48524 0-0.78884 0.061743-0.91015 0.18555-0.12131 0.1238-0.18165 0.45586-0.18165 0.99609 0 0.52898 0.06034 0.85034 0.18165 0.96289 0.13141 0.11255 0.45513 0.16797 0.9707 0.16797h0.5625c0.12131-0.011254 0.25105-0.026318 0.39258-0.048828 0.14152-0.022509 0.23851-0.056542 0.28906-0.10156 0.06065-0.056275 0.11191-0.13066 0.15234-0.2207 0.04044-0.09004 0.06055-0.2072 0.06055-0.35352v-1.5879h-1.5176z" clip-rule="evenodd" fill="#337ab7" fill-rule="evenodd"/>
<path d="m28.067 8.439c-1.637 5.394 0.139 11 5.241 14.354l-10.65 0.047c-2.598-4.391-3.624-9.126-2.741-14.349l8.15-0.052zm-5.744-6.808l10.968 0.036c-3.02 2.209-4.094 3.98-4.75 5.394l-8.34 6e-3c0.554-1.754 1.01-3.594 2.122-5.436z" clip-rule="evenodd" fill="#337ab7" fill-rule="evenodd"/>
<path d="m4.072 1.667h4.342c-3.816 7.201-3.702 14.229 0 21.112h-4.342c-3.588-6.668-3.944-13.651 0-21.112" clip-rule="evenodd" fill="#337ab7" fill-rule="evenodd"/>
<path d="m17.796 1.667h3.061c-3.815 7.201-3.557 14.218 0.146 21.101l-3.206 0.012c-3.633-6.779-4.025-13.89-1e-3 -21.113" clip-rule="evenodd" fill="#337ab7" fill-rule="evenodd"/>
<path d="m11.731 1.667h3.43c-3.814 7.201-3.701 14.229 0 21.112h-3.43c-3.588-6.668-3.943-13.651 0-21.112" clip-rule="evenodd" fill="#337ab7" fill-rule="evenodd"/>
<rect x="55.825" y="20.45" width="6.706" height="2.39" clip-rule="evenodd" fill="#EB102C" fill-rule="evenodd"/>
<polygon points="69.179 12.535 86.075 12.535 86.075 14.8 76.534 14.678 76.534 16.42 85.071 16.42 85.071 18.552 76.534 18.552 76.534 22.84 69.179 22.84" clip-rule="evenodd" fill="#337ab7" fill-rule="evenodd"/>
<path d="m62.345 5.809l2.706-0.014c0.284 0 0.854-0.057 1.693-0.144 0.427-0.043 0.771-0.158 1.039-0.328 0.271-0.172 0.398-0.372 0.398-0.601-0.013-0.329-0.227-0.587-0.654-0.759-0.427-0.171-1.237-0.257-2.406-0.257l-2.818 0.015 0.042 2.088zm-6.349 6.12l-0.171-10.254 10.692-0.042c1.992-0.014 3.501 0.071 4.555 0.229 1.054 0.171 1.908 0.472 2.549 0.93 0.655 0.443 0.982 1 0.997 1.658 0.014 0.558-0.228 1.059-0.713 1.474-0.483 0.415-1.151 0.743-2.007 1.015-0.539 0.156-1.294 0.3-2.248 0.415 0.769 0.115 1.323 0.243 1.68 0.372 0.241 0.072 0.583 0.257 1.039 0.528 0.455 0.272 0.754 0.485 0.911 0.63l3.256 3.01h-7.355l-3.487-3.14c-0.445-0.398-0.826-0.664-1.168-0.786-0.467-0.165-0.998-0.228-1.581-0.228h-0.568l0.071 4.16-6.452 0.029z" clip-rule="evenodd" fill="#337ab7" fill-rule="evenodd"/>
<rect x="55.825" y="1.776" width="6.706" height="12.725" clip-rule="evenodd" fill="#337ab7" fill-rule="evenodd"/>
<rect x="55.825" y="16.276" width="6.706" height="2.387" clip-rule="evenodd" fill="#EB102C" fill-rule="evenodd"/>
<path d="m82.981 4.606c0-0.067-6e-3 -0.129-0.022-0.192-0.02-0.058-0.055-0.112-0.104-0.158-0.053-0.046-0.121-0.08-0.206-0.105-0.083-0.022-0.192-0.034-0.317-0.034h-0.416v1.017h0.399c0.256 0 0.428-0.05 0.524-0.146 0.098-0.096 0.142-0.224 0.142-0.382m1.125 2.514c0 0.025-6e-3 0.051-0.014 0.07-9e-3 0.021-0.033 0.036-0.07 0.045-0.034 9e-3 -0.085 0.015-0.152 0.021-0.065 6e-3 -0.155 0.01-0.27 0.01-0.105 0-0.185-4e-3 -0.25-0.01-0.062-6e-3 -0.115-0.016-0.154-0.031-0.038-0.015-0.069-0.036-0.09-0.061-0.022-0.029-0.037-0.066-0.05-0.116l-0.192-0.626c-0.071-0.223-0.158-0.381-0.256-0.468s-0.249-0.134-0.447-0.134h-0.245v1.274c0 0.065-0.026 0.112-0.076 0.137-0.051 0.022-0.169 0.035-0.358 0.035-0.188 0-0.311-0.013-0.369-0.035-0.063-0.025-0.092-0.071-0.092-0.137v-3.26c0-0.134 0.032-0.238 0.101-0.312 0.064-0.079 0.167-0.115 0.298-0.115h1.036c0.244 0 0.456 0.023 0.64 0.064 0.185 0.042 0.338 0.11 0.469 0.199 0.129 0.09 0.229 0.205 0.296 0.342 0.064 0.136 0.099 0.298 0.099 0.487 0 0.288-0.079 0.515-0.234 0.675-0.158 0.161-0.37 0.273-0.633 0.341 0.142 0.047 0.279 0.13 0.404 0.245 0.128 0.114 0.237 0.29 0.328 0.519l0.216 0.579c0.045 0.139 0.065 0.228 0.065 0.262zm1.065-1.662c0-0.429-0.067-0.818-0.203-1.172-0.136-0.35-0.323-0.65-0.566-0.901-0.239-0.251-0.526-0.443-0.856-0.577-0.331-0.132-0.691-0.202-1.078-0.202-0.414 0-0.79 0.076-1.124 0.221-0.337 0.146-0.624 0.344-0.867 0.598-0.238 0.254-0.424 0.548-0.554 0.886-0.13 0.336-0.194 0.695-0.194 1.077 0 0.425 0.07 0.812 0.203 1.163 0.136 0.351 0.323 0.651 0.566 0.903 0.242 0.25 0.529 0.445 0.857 0.582 0.332 0.136 0.69 0.205 1.077 0.205 0.415 0 0.79-0.075 1.13-0.223 0.337-0.149 0.624-0.348 0.866-0.599 0.237-0.251 0.418-0.545 0.548-0.884 0.131-0.335 0.195-0.696 0.195-1.077zm0.816-0.052c0 0.496-0.092 0.961-0.275 1.392-0.184 0.434-0.436 0.81-0.755 1.128-0.318 0.317-0.698 0.568-1.13 0.754-0.436 0.183-0.898 0.276-1.393 0.276-0.512 0-0.984-0.091-1.415-0.268-0.431-0.179-0.804-0.424-1.113-0.737-0.311-0.311-0.553-0.684-0.727-1.11-0.177-0.431-0.264-0.903-0.264-1.417 0-0.499 0.094-0.961 0.275-1.392 0.186-0.428 0.436-0.803 0.756-1.12 0.32-0.319 0.694-0.57 1.126-0.75 0.43-0.184 0.896-0.273 1.396-0.273 0.512 0 0.984 0.087 1.416 0.264 0.432 0.176 0.804 0.417 1.112 0.73 0.312 0.31 0.553 0.682 0.729 1.114 0.175 0.429 0.262 0.9 0.262 1.409z" fill="#337ab7"/>
<path d="m44.532 12.998h-6.136l2.975 3.627c-0.506 0.172-1.056 0.259-1.604 0.259-2.67 0-4.835-2.044-4.835-4.567 0-2.521 2.165-4.581 4.835-4.581 2.657 0 4.807 2.06 4.807 4.581 0 0.231-0.013 0.465-0.042 0.681m-4.865-11.367c6.149 0 10.755 4.795 10.755 10.625 0 1.841-0.316 3.408-1.197 4.916l4.734 5.668h-7.565l-1.141-1.446c-1.66 0.898-3.55 1.422-5.586 1.422-6.164 0-10.422-4.718-10.422-10.56 0-5.829 4.258-10.625 10.422-10.625z" clip-rule="evenodd" fill="#337ab7" fill-rule="evenodd"/>
</svg>
