<?xml version="1.0" encoding="UTF-8" standalone="no"?>
<!-- Creator: CorelDRAW 2017 -->

<svg
	xml:space="preserve"
	width="51.3582mm"
	height="6.741mm"
	version="1.1"
	style="shape-rendering:geometricPrecision; text-rendering:geometricPrecision; image-rendering:optimizeQuality; fill-rule:evenodd; clip-rule:evenodd"
	viewBox="0 0 1498.67 196.71"
	id="svg2061"
	xmlns="http://www.w3.org/2000/svg"
	xmlns:svg="http://www.w3.org/2000/svg">
 <defs
	 id="defs2045">
  <style
	  type="text/css"
	  id="style2043">
   <![CDATA[
    .fil0 {fill:#004D81;fill-rule:nonzero}
   ]]>
  </style>
 </defs>
	<g
		id="Vrstva_x0020_1">
  <metadata
	  id="CorelCorpID_0Corel-Layer" />
		<polygon
			class="fil0"
			points="-0,154.42 -0,0 41.57,0 41.57,154.42 "
			id="polygon2048"
			style="fill:#e31e24;fill-opacity:1" />
		<path
			id="1"
			class="fil0"
			d="M211.2 154.42l-8.31 -9.74c-5.86,3.17 -11.96,5.58 -18.29,7.25 -6.34,1.66 -12.59,2.49 -18.77,2.49l-21.38 0c-11.88,0 -22.81,-1.86 -32.78,-5.58 -9.98,-3.72 -18.57,-8.95 -25.78,-15.68 -7.21,-6.73 -12.87,-14.85 -16.99,-24.35 -4.12,-9.5 -6.18,-20.04 -6.18,-31.6 0,-11.56 2.06,-22.05 6.18,-31.48 4.12,-9.43 9.78,-17.54 16.99,-24.35 7.2,-6.81 15.8,-12.08 25.78,-15.8 9.98,-3.72 20.91,-5.58 32.78,-5.58l21.38 0c11.88,0 22.81,1.94 32.78,5.82 9.98,3.88 18.57,9.15 25.78,15.8 7.2,6.65 12.87,14.49 16.99,23.52 4.12,9.03 6.17,18.69 6.17,28.98 0,9.82 -1.74,18.97 -5.23,27.44 -3.48,8.47 -8.23,16.11 -14.25,22.92l29.46 29.93 -46.33 0zm-40.86 -37.54c2.38,0 4.91,-0.24 7.6,-0.71l-32.55 -33.26 46.32 0 11.64 14.02c1.27,-2.69 2.3,-5.62 3.09,-8.79 0.79,-3.17 1.19,-6.57 1.19,-10.22 0,-5.54 -0.91,-10.65 -2.73,-15.32 -1.82,-4.67 -4.39,-8.71 -7.72,-12.12 -3.33,-3.41 -7.29,-6.06 -11.88,-7.96 -4.59,-1.9 -9.58,-2.85 -14.97,-2.85l-28.75 0c-5.38,0 -10.37,0.95 -14.97,2.85 -4.59,1.9 -8.55,4.56 -11.88,7.96 -3.32,3.41 -5.94,7.48 -7.84,12.24 -1.9,4.75 -2.85,9.98 -2.85,15.68 0,5.7 0.95,10.93 2.85,15.68 1.9,4.75 4.51,8.83 7.84,12.24 3.33,3.41 7.29,6.02 11.88,7.84 4.59,1.82 9.58,2.73 14.97,2.73l28.75 0z"
			style="fill:#e31e24;fill-opacity:1" />
		<path
			id="2"
			class="fil0"
			d="M391.76 154.42l-30.88 -39.2 -36.59 0 0 -36.11 53.22 0c5.7,0 10.37,-1.78 14.02,-5.35 3.64,-3.56 5.47,-8.35 5.47,-14.37 0,-6.02 -1.82,-10.81 -5.47,-14.37 -3.64,-3.56 -8.31,-5.34 -14.02,-5.34l-65.09 0 0 114.74 -41.34 0 0 -154.42 106.43 0c8.87,0 17.02,1.38 24.47,4.16 7.44,2.77 13.9,6.69 19.36,11.76 5.47,5.07 9.7,11.17 12.71,18.29 3.01,7.13 4.51,14.97 4.51,23.52 0,11.88 -2.85,22.25 -8.55,31.12 -5.7,8.87 -13.38,15.6 -23.04,20.19l38.96 45.38 -54.17 0z"
			style="fill:#e31e24;fill-opacity:1" />
		<path
			id="3"
			class="fil0"
			d="M515.76 95.5l0 -34.92 87.19 0 0 34.92 -87.19 0zm-55.35 58.92l0 -154.42 143.97 0 0 39.67 -102.39 0 0 114.74 -41.57 0z"
			style="fill:#e31e24;fill-opacity:1" />
		<path
			id="4"
			class="fil0"
			d="M808.22 23.24c0,0.99 -0.08,1.94 -0.24,2.77 -0.16,0.83 -0.36,1.54 -0.63,2.14 -0.28,0.55 -0.63,1.03 -1.03,1.31 -0.43,0.32 -0.87,0.48 -1.35,0.48 -0.95,0 -2.45,-0.79 -4.59,-2.34 -2.14,-1.54 -4.99,-3.21 -8.55,-5.03 -3.52,-1.82 -7.84,-3.48 -12.95,-5.03 -5.07,-1.55 -11.09,-2.34 -18.05,-2.34 -8.87,0 -16.83,1.62 -23.8,4.91 -6.97,3.29 -12.83,7.8 -17.66,13.54 -4.79,5.7 -8.43,12.51 -10.97,20.35 -2.49,7.84 -3.76,16.27 -3.76,25.34 0,10.14 1.42,19.17 4.27,27.09 2.89,7.92 6.85,14.61 11.92,20.07 5.07,5.42 11.09,9.58 18.1,12.47 6.97,2.85 14.61,4.28 22.89,4.28 5.35,0 10.77,-0.67 16.23,-1.98 5.5,-1.31 10.65,-3.33 15.44,-6.02l0 -48.55 -38.33 0c-1.23,0 -2.18,-0.55 -2.81,-1.62 -0.59,-1.07 -0.91,-2.61 -0.91,-4.63 0,-1.07 0.08,-2.02 0.24,-2.81 0.16,-0.79 0.4,-1.46 0.67,-1.98 0.32,-0.48 0.71,-0.87 1.19,-1.15 0.48,-0.28 0.99,-0.4 1.63,-0.4l46.05 0c0.71,0 1.46,0.12 2.22,0.36 0.79,0.24 1.51,0.59 2.18,1.15 0.63,0.55 1.19,1.31 1.54,2.26 0.4,0.95 0.6,2.14 0.6,3.53l0 55.67c0,1.86 -0.28,3.44 -0.87,4.75 -0.59,1.31 -1.9,2.57 -4,3.76 -2.1,1.23 -4.87,2.54 -8.35,3.96 -3.48,1.43 -7.09,2.61 -10.77,3.56 -3.72,0.99 -7.44,1.7 -11.21,2.22 -3.76,0.51 -7.44,0.75 -11.09,0.75 -11.36,0 -21.5,-1.82 -30.45,-5.5 -8.91,-3.68 -16.47,-8.87 -22.61,-15.52 -6.14,-6.69 -10.85,-14.65 -14.1,-23.88 -3.24,-9.26 -4.87,-19.44 -4.87,-30.57 0,-11.68 1.74,-22.29 5.27,-31.92 3.53,-9.62 8.47,-17.86 14.85,-24.63 6.38,-6.81 14.02,-12.08 22.93,-15.84 8.91,-3.76 18.73,-5.62 29.46,-5.62 5.42,0 10.53,0.51 15.36,1.51 4.83,1.03 9.19,2.22 13.07,3.64 3.84,1.46 7.17,3.01 9.86,4.67 2.69,1.66 4.55,2.97 5.5,3.92 0.95,0.99 1.62,1.94 1.98,2.85 0.36,0.91 0.52,2.26 0.52,4.04z"
			style="fill:#e31e24;fill-opacity:1" />
		<path
			id="5"
			class="fil0"
			d="M919.76 152.12c0,0.75 -0.24,1.35 -0.75,1.78 -0.52,0.43 -1.15,0.75 -1.98,0.95 -0.79,0.2 -1.9,0.28 -3.29,0.28 -1.31,0 -2.42,-0.08 -3.36,-0.28 -0.91,-0.2 -1.63,-0.51 -2.14,-0.95 -0.51,-0.44 -0.75,-1.03 -0.75,-1.78l0 -11.72c-4.71,5.11 -9.9,9.03 -15.6,11.8 -5.66,2.73 -11.56,4.12 -17.66,4.12 -5.5,0 -10.41,-0.71 -14.77,-2.14 -4.39,-1.46 -8.08,-3.48 -11.09,-6.18 -3.01,-2.65 -5.35,-5.9 -6.97,-9.7 -1.63,-3.8 -2.42,-8.08 -2.42,-12.79 0,-5.82 1.19,-10.89 3.6,-15.17 2.38,-4.32 5.78,-7.88 10.18,-10.77 4.44,-2.85 9.7,-4.99 15.88,-6.45 6.22,-1.42 13.07,-2.14 20.67,-2.14l16.67 0 0 -8.99c0,-4.48 -0.48,-8.44 -1.39,-11.84 -0.95,-3.41 -2.46,-6.3 -4.51,-8.59 -2.1,-2.3 -4.79,-4.04 -8.12,-5.19 -3.33,-1.15 -7.4,-1.74 -12.19,-1.74 -4.63,0 -8.79,0.55 -12.51,1.7 -3.68,1.11 -6.93,2.38 -9.74,3.76 -2.77,1.39 -5.07,2.65 -6.89,3.76 -1.82,1.15 -3.09,1.7 -3.88,1.7 -0.48,0 -0.87,-0.08 -1.27,-0.24 -0.39,-0.16 -0.71,-0.43 -0.99,-0.87 -0.28,-0.4 -0.48,-0.95 -0.59,-1.63 -0.12,-0.63 -0.16,-1.42 -0.16,-2.38 0,-1.58 0.12,-2.89 0.36,-3.84 0.24,-0.99 0.83,-1.94 1.78,-2.89 0.99,-0.99 2.69,-2.14 5.15,-3.44 2.49,-1.35 5.35,-2.57 8.55,-3.72 3.17,-1.11 6.65,-2.06 10.33,-2.73 3.72,-0.71 7.44,-1.07 11.13,-1.07 7.21,0 13.27,0.87 18.21,2.61 4.95,1.74 8.95,4.24 12,7.48 3.05,3.25 5.23,7.25 6.53,12.04 1.31,4.75 1.98,10.13 1.98,16.15l0 71.07zm-13.78 -49.73l-19.09 0c-5.54,0 -10.41,0.51 -14.57,1.5 -4.16,1.03 -7.64,2.49 -10.41,4.44 -2.77,1.9 -4.83,4.24 -6.17,6.97 -1.35,2.69 -2.02,5.78 -2.02,9.26 0,6.06 1.9,10.89 5.74,14.49 3.8,3.6 9.19,5.39 16.12,5.39 5.46,0 10.57,-1.43 15.32,-4.24 4.75,-2.81 9.78,-7.17 15.09,-13.07l0 -24.75z"
			style="fill:#e31e24;fill-opacity:1" />
		<path
			id="6"
			class="fil0"
			d="M1006.23 145.71c0,1.62 -0.12,2.97 -0.39,3.96 -0.28,1.03 -0.71,1.82 -1.31,2.41 -0.55,0.55 -1.43,1.11 -2.53,1.63 -1.11,0.48 -2.42,0.91 -3.88,1.27 -1.46,0.36 -3.05,0.63 -4.67,0.83 -1.63,0.2 -3.21,0.28 -4.75,0.28 -5.19,0 -9.58,-0.71 -13.22,-2.1 -3.64,-1.39 -6.61,-3.48 -8.95,-6.3 -2.3,-2.85 -4,-6.41 -5.03,-10.77 -1.07,-4.32 -1.58,-9.43 -1.58,-15.28l0 -65.33 -15.56 0c-1.07,0 -1.9,-0.47 -2.53,-1.42 -0.6,-0.99 -0.91,-2.42 -0.91,-4.36 0,-0.99 0.08,-1.86 0.24,-2.57 0.16,-0.71 0.4,-1.35 0.67,-1.86 0.32,-0.48 0.67,-0.83 1.11,-1.07 0.43,-0.24 0.91,-0.36 1.42,-0.36l15.56 0 0 -25.74c0,-0.47 0.08,-0.87 0.28,-1.27 0.2,-0.39 0.55,-0.71 1.11,-0.99 0.55,-0.28 1.27,-0.48 2.14,-0.6 0.91,-0.12 1.98,-0.16 3.32,-0.16 1.39,0 2.49,0.04 3.41,0.16 0.87,0.12 1.58,0.32 2.06,0.6 0.51,0.28 0.87,0.6 1.11,0.99 0.24,0.4 0.36,0.79 0.36,1.27l0 25.74 29.06 0c0.55,0 1.03,0.12 1.46,0.36 0.4,0.24 0.79,0.6 1.11,1.07 0.28,0.51 0.52,1.15 0.67,1.86 0.16,0.71 0.24,1.58 0.24,2.57 0,1.94 -0.32,3.37 -0.99,4.36 -0.67,0.95 -1.5,1.42 -2.49,1.42l-29.06 0 0 63.43c0,7.96 1.15,14.02 3.44,18.21 2.26,4.16 6.45,6.26 12.47,6.26 1.86,0 3.56,-0.2 5.07,-0.59 1.51,-0.36 2.85,-0.79 4,-1.27 1.19,-0.48 2.14,-0.87 2.97,-1.27 0.83,-0.39 1.55,-0.59 2.14,-0.59 0.4,0 0.75,0.08 1.07,0.24 0.32,0.16 0.55,0.43 0.75,0.87 0.2,0.43 0.36,0.99 0.48,1.62 0.12,0.67 0.16,1.51 0.16,2.49z"
			style="fill:#e31e24;fill-opacity:1" />
		<path
			id="7"
			class="fil0"
			d="M1117.14 94.12c0,2.81 -0.75,4.71 -2.22,5.74 -1.46,1.07 -2.89,1.58 -4.28,1.58l-71.43 0c0,6.49 0.63,12.35 1.9,17.62 1.27,5.27 3.41,9.74 6.34,13.5 2.93,3.76 6.73,6.61 11.44,8.63 4.71,2.02 10.49,3.01 17.38,3.01 4.87,0 9.22,-0.43 13.06,-1.31 3.88,-0.83 7.21,-1.78 10.02,-2.85 2.85,-1.07 5.15,-2.02 6.97,-2.85 1.82,-0.87 3.09,-1.31 3.88,-1.31 0.48,0 0.87,0.12 1.27,0.36 0.4,0.24 0.71,0.59 0.91,1.07 0.24,0.52 0.44,1.15 0.55,1.94 0.12,0.75 0.16,1.7 0.16,2.85 0,0.55 -0.04,1.07 -0.12,1.58 -0.08,0.48 -0.16,0.95 -0.28,1.39 -0.12,0.39 -0.32,0.83 -0.52,1.19 -0.24,0.4 -0.55,0.79 -0.95,1.15 -0.4,0.4 -1.58,1.07 -3.6,2.06 -1.98,0.99 -4.63,1.98 -7.88,2.97 -3.25,0.99 -7.01,1.9 -11.28,2.69 -4.32,0.79 -8.95,1.19 -13.9,1.19 -8.12,0 -15.28,-1.23 -21.54,-3.64 -6.3,-2.45 -11.56,-6.06 -15.8,-10.81 -4.24,-4.75 -7.48,-10.65 -9.7,-17.66 -2.18,-7.05 -3.29,-15.2 -3.29,-24.51 0,-8.87 1.15,-16.83 3.41,-23.88 2.3,-7.05 5.54,-13.03 9.82,-17.94 4.24,-4.91 9.38,-8.63 15.36,-11.24 5.98,-2.57 12.67,-3.88 19.99,-3.88 7.88,0 14.61,1.31 20.19,3.96 5.54,2.61 10.14,6.14 13.74,10.61 3.6,4.44 6.22,9.58 7.88,15.48 1.66,5.86 2.49,12.04 2.49,18.53l0 2.77zm-14.25 -4.08c0.24,-11.13 -2.34,-19.8 -7.64,-26.01 -5.31,-6.26 -13.07,-9.38 -23.28,-9.38 -5.23,0 -9.86,0.99 -13.82,2.93 -3.96,1.98 -7.32,4.59 -10.06,7.84 -2.73,3.21 -4.87,6.97 -6.34,11.28 -1.46,4.28 -2.3,8.71 -2.53,13.34l63.67 0z"
			style="fill:#e31e24;fill-opacity:1" />
		<path
			id="8"
			class="fil0"
			d="M1287.08 46.96c0,0.4 -0.08,0.83 -0.2,1.35 -0.12,0.51 -0.24,1.07 -0.4,1.66l-32.51 102.16c-0.16,0.6 -0.43,1.11 -0.87,1.51 -0.43,0.39 -0.99,0.67 -1.7,0.91 -0.67,0.24 -1.58,0.39 -2.69,0.48 -1.15,0.08 -2.46,0.12 -4.04,0.12 -1.63,0 -3.01,-0.04 -4.16,-0.16 -1.15,-0.12 -2.1,-0.32 -2.85,-0.55 -0.71,-0.2 -1.31,-0.51 -1.74,-0.91 -0.43,-0.4 -0.71,-0.83 -0.87,-1.39l-24.35 -82.79 -0.24 -0.91 -0.24 0.91 -22.77 82.79c-0.16,0.6 -0.48,1.11 -0.95,1.51 -0.43,0.39 -1.07,0.67 -1.9,0.91 -0.79,0.24 -1.78,0.39 -2.97,0.48 -1.15,0.08 -2.45,0.12 -3.92,0.12 -1.54,0 -2.89,-0.04 -3.96,-0.16 -1.07,-0.12 -1.98,-0.32 -2.73,-0.55 -0.71,-0.2 -1.31,-0.51 -1.66,-0.91 -0.4,-0.4 -0.67,-0.83 -0.83,-1.39l-32.19 -102.16c-0.24,-0.51 -0.39,-1.07 -0.51,-1.62 -0.12,-0.51 -0.2,-0.99 -0.2,-1.39 0,-0.51 0.12,-0.99 0.36,-1.39 0.24,-0.39 0.63,-0.67 1.19,-0.87 0.52,-0.2 1.23,-0.32 2.1,-0.4 0.83,-0.08 1.9,-0.12 3.13,-0.12 1.66,0 2.97,0.04 4,0.16 0.99,0.12 1.74,0.32 2.26,0.55 0.52,0.2 0.87,0.51 1.11,0.91 0.24,0.39 0.43,0.83 0.6,1.39l27.56 91.58 0.24 0.83 0.24 -0.83 25.22 -91.58c0.16,-0.55 0.36,-0.99 0.63,-1.39 0.28,-0.4 0.67,-0.71 1.15,-0.91 0.52,-0.24 1.23,-0.44 2.1,-0.55 0.91,-0.12 2.02,-0.16 3.44,-0.16 1.31,0 2.38,0.04 3.25,0.16 0.83,0.12 1.54,0.32 2.1,0.55 0.51,0.2 0.91,0.51 1.15,0.91 0.24,0.39 0.44,0.83 0.6,1.39l27.12 91.58 0.24 0.83 0.12 -0.83 27.68 -91.58c0.16,-0.55 0.36,-0.99 0.63,-1.39 0.28,-0.4 0.67,-0.71 1.23,-0.91 0.51,-0.24 1.27,-0.44 2.26,-0.55 0.95,-0.12 2.22,-0.16 3.76,-0.16 1.23,0 2.22,0.04 3.01,0.12 0.75,0.08 1.39,0.24 1.82,0.48 0.48,0.2 0.79,0.51 0.95,0.87 0.16,0.32 0.24,0.79 0.24,1.31z"
			style="fill:#e31e24;fill-opacity:1" />
		<path
			id="9"
			class="fil0"
			d="M1384.36 152.12c0,0.75 -0.24,1.35 -0.75,1.78 -0.52,0.43 -1.15,0.75 -1.98,0.95 -0.79,0.2 -1.9,0.28 -3.29,0.28 -1.31,0 -2.42,-0.08 -3.36,-0.28 -0.91,-0.2 -1.63,-0.51 -2.14,-0.95 -0.51,-0.44 -0.75,-1.03 -0.75,-1.78l0 -11.72c-4.71,5.11 -9.9,9.03 -15.6,11.8 -5.66,2.73 -11.56,4.12 -17.66,4.12 -5.5,0 -10.41,-0.71 -14.77,-2.14 -4.39,-1.46 -8.08,-3.48 -11.09,-6.18 -3.01,-2.65 -5.35,-5.9 -6.97,-9.7 -1.63,-3.8 -2.42,-8.08 -2.42,-12.79 0,-5.82 1.19,-10.89 3.6,-15.17 2.38,-4.32 5.78,-7.88 10.18,-10.77 4.44,-2.85 9.7,-4.99 15.88,-6.45 6.22,-1.42 13.07,-2.14 20.67,-2.14l16.67 0 0 -8.99c0,-4.48 -0.48,-8.44 -1.39,-11.84 -0.95,-3.41 -2.46,-6.3 -4.51,-8.59 -2.1,-2.3 -4.79,-4.04 -8.12,-5.19 -3.33,-1.15 -7.4,-1.74 -12.19,-1.74 -4.63,0 -8.79,0.55 -12.51,1.7 -3.68,1.11 -6.93,2.38 -9.74,3.76 -2.77,1.39 -5.07,2.65 -6.89,3.76 -1.82,1.15 -3.09,1.7 -3.88,1.7 -0.48,0 -0.87,-0.08 -1.27,-0.24 -0.39,-0.16 -0.71,-0.43 -0.99,-0.87 -0.28,-0.4 -0.48,-0.95 -0.59,-1.63 -0.12,-0.63 -0.16,-1.42 -0.16,-2.38 0,-1.58 0.12,-2.89 0.36,-3.84 0.24,-0.99 0.83,-1.94 1.78,-2.89 0.99,-0.99 2.69,-2.14 5.15,-3.44 2.49,-1.35 5.35,-2.57 8.55,-3.72 3.17,-1.11 6.65,-2.06 10.33,-2.73 3.72,-0.71 7.44,-1.07 11.13,-1.07 7.21,0 13.27,0.87 18.21,2.61 4.95,1.74 8.95,4.24 12,7.48 3.05,3.25 5.23,7.25 6.53,12.04 1.31,4.75 1.98,10.13 1.98,16.15l0 71.07zm-13.78 -49.73l-19.09 0c-5.54,0 -10.41,0.51 -14.57,1.5 -4.16,1.03 -7.64,2.49 -10.41,4.44 -2.77,1.9 -4.83,4.24 -6.17,6.97 -1.35,2.69 -2.02,5.78 -2.02,9.26 0,6.06 1.9,10.89 5.74,14.49 3.8,3.6 9.19,5.39 16.12,5.39 5.46,0 10.57,-1.43 15.32,-4.24 4.75,-2.81 9.78,-7.17 15.09,-13.07l0 -24.75z"
			style="fill:#e31e24;fill-opacity:1" />
		<path
			id="10"
			class="fil0"
			d="M1458.84 154.42l-14.57 39.28c-0.39,0.83 -1.19,1.54 -2.45,2.14 -1.23,0.6 -3.25,0.87 -5.98,0.87 -1.39,0 -2.53,-0.08 -3.48,-0.24 -0.95,-0.16 -1.66,-0.43 -2.18,-0.87 -0.48,-0.44 -0.79,-0.95 -0.87,-1.63 -0.08,-0.63 0.08,-1.42 0.48,-2.38l14.89 -37.18c-0.6,-0.24 -1.15,-0.63 -1.62,-1.15 -0.44,-0.55 -0.75,-1.11 -0.91,-1.63l-38.13 -102.35c-0.4,-1.11 -0.6,-1.94 -0.6,-2.61 0,-0.67 0.24,-1.19 0.63,-1.58 0.44,-0.36 1.15,-0.63 2.1,-0.75 0.99,-0.12 2.26,-0.16 3.88,-0.16 1.7,0 3.05,0.04 4.08,0.16 0.99,0.12 1.78,0.32 2.38,0.55 0.55,0.2 0.99,0.51 1.27,0.91 0.28,0.39 0.52,0.83 0.75,1.39l32.78 91.58 0.48 0 32.31 -91.58c0.4,-1.07 0.91,-1.78 1.58,-2.14 0.63,-0.36 1.5,-0.6 2.57,-0.71 1.11,-0.12 2.41,-0.16 3.96,-0.16 1.46,0 2.69,0.08 3.64,0.24 0.95,0.16 1.66,0.43 2.14,0.79 0.47,0.4 0.71,0.91 0.71,1.58 0,0.63 -0.2,1.46 -0.6,2.49l-39.24 105.12z"
			style="fill:#e31e24;fill-opacity:1" />
 </g>
</svg>
