<?xml version="1.0" encoding="UTF-8" standalone="no"?>
<svg
	width="48"
	height="48"
	enable-background="new 0.102 0.51 175 23.233"
	version="1.1"
	viewBox=".102 .51 48 48"
	xml:space="preserve"
	id="svg10"
	xmlns="http://www.w3.org/2000/svg"
><defs
   id="defs14" />

<rect
   x="0.102"
   y="0.50999999"
   width="48"
   height="48"
   ry="6"
   fill="#367fa9"
   stroke-width="0.74625"
   id="rect2" />
	<g
   aria-label="IQ"
   id="text841"
   style="font-size:32px;line-height:1.25;font-family:'Good Timing';-inkscape-font-specification:'Good Timing';letter-spacing:0px;word-spacing:0px"><path
     d="m 6.7580025,34.91 v -20.8 h 5.6000005 v 20.8 z"
     style="fill:#ffffff"
     id="path290" /><path
     d="m 35.205998,34.91 -1.12,-1.312 q -1.184,0.64 -2.464,0.992 -1.28,0.32 -2.528,0.32 h -2.88 q -2.4,0 -4.416,-0.736 -2.016,-0.768 -3.488,-2.112 -1.44,-1.376 -2.272,-3.296 -0.832,-1.92 -0.832,-4.256 0,-2.336 0.832,-4.224 0.832,-1.92 2.272,-3.296 1.472,-1.376 3.488,-2.112 2.016,-0.768 4.416,-0.768 h 2.88 q 2.4,0 4.416,0.8 2.016,0.768 3.456,2.112 1.472,1.344 2.304,3.168 0.832,1.824 0.832,3.904 0,1.984 -0.704,3.712 -0.704,1.696 -1.92,3.072 l 3.968,4.032 z m -5.504,-5.056 q 0.48,0 1.024,-0.096 l -4.384,-4.48 h 6.24 l 1.568,1.888 q 0.256,-0.544 0.416,-1.184 0.16,-0.64 0.16,-1.376 0,-1.12 -0.384,-2.048 -0.352,-0.96 -1.024,-1.632 -0.672,-0.704 -1.6,-1.088 -0.928,-0.384 -2.016,-0.384 h -3.872 q -1.088,0 -2.016,0.384 -0.928,0.384 -1.6,1.088 -0.672,0.672 -1.056,1.632 -0.384,0.96 -0.384,2.112 0,1.152 0.384,2.112 0.384,0.96 1.056,1.664 0.672,0.672 1.6,1.056 0.928,0.352 2.016,0.352 z"
     style="fill:#ffffff"
     id="path292" /></g></svg>
