<?xml version="1.0" standalone="no"?>
<!DOCTYPE svg PUBLIC "-//W3C//DTD SVG 20010904//EN"
 "http://www.w3.org/TR/2001/REC-SVG-20010904/DTD/svg10.dtd">
<svg version="1.0" xmlns="http://www.w3.org/2000/svg"
 width="700.000000pt" height="700.000000pt" viewBox="0 0 700.000000 700.000000"
 preserveAspectRatio="xMidYMid meet">
<metadata>
Created by potrace 1.14, written by Peter Selinger 2001-2017
</metadata>
<g transform="translate(0.000000,700.000000) scale(0.100000,-0.100000)"
fill="#000000" stroke="none">
<path d="M737 6990 c-337 -57 -599 -290 -704 -627 l-28 -88 0 -2775 0 -2775
28 -88 c95 -304 300 -509 604 -604 l88 -28 2775 0 2775 0 88 28 c304 95 509
300 604 604 l28 88 0 2775 0 2775 -28 88 c-95 304 -300 509 -604 604 l-88 28
-2745 1 c-1510 1 -2767 -2 -2793 -6z m1053 -3490 l0 -1520 -410 0 -410 0 0
1520 0 1520 410 0 410 0 0 -1520z m2590 1510 c155 -14 264 -35 395 -77 563
-181 950 -610 1040 -1152 23 -136 16 -404 -13 -531 -53 -226 -159 -443 -305
-622 l-46 -57 284 -289 c157 -160 285 -293 285 -296 0 -3 -202 -6 -449 -6
l-448 0 -83 96 c-45 52 -87 93 -94 90 -6 -2 -57 -25 -114 -50 -117 -52 -230
-87 -365 -113 -138 -26 -781 -26 -947 0 -370 58 -665 200 -895 431 -304 305
-456 743 -416 1198 20 226 56 359 150 553 96 197 215 348 371 474 256 205 584
328 950 354 111 8 596 6 700 -3z"/>
<path d="M3631 4228 c-144 -20 -274 -83 -381 -185 -158 -149 -231 -329 -231
-568 0 -359 195 -634 516 -727 78 -22 91 -23 497 -23 229 0 420 4 424 8 5 4
-88 105 -207 225 -118 119 -261 265 -319 325 l-105 107 455 0 455 0 114 -137
114 -136 18 35 c52 102 80 308 60 446 -51 345 -284 584 -616 632 -86 12 -706
11 -794 -2z"/>
</g>
</svg>
