<?xml version="1.0" standalone="no"?>
<!DOCTYPE svg PUBLIC "-//W3C//DTD SVG 20010904//EN"
 "http://www.w3.org/TR/2001/REC-SVG-20010904/DTD/svg10.dtd">
<svg version="1.0" xmlns="http://www.w3.org/2000/svg"
 width="700.000000pt" height="700.000000pt" viewBox="0 0 700.000000 700.000000"
 preserveAspectRatio="xMidYMid meet">
<metadata>
Created by potrace 1.14, written by Peter Selinger 2001-2017
</metadata>
<g transform="translate(0.000000,700.000000) scale(0.100000,-0.100000)"
fill="#000000" stroke="none">
<path d="M870 6990 c-167 -7 -242 -22 -348 -70 -254 -116 -440 -346 -499 -620
-17 -81 -18 -208 -18 -2800 0 -2592 1 -2719 18 -2800 71 -330 309 -579 642
-672 l80 -22 2615 -4 c1630 -2 2677 1 2780 7 186 11 257 28 380 92 218 113
372 300 441 534 37 125 40 420 36 3080 -3 2345 -5 2525 -21 2593 -79 335 -333
589 -666 668 -71 17 -226 18 -2680 19 -1433 1 -2675 -1 -2760 -5z m266 -2492
c-164 -349 -236 -653 -236 -1003 0 -351 68 -638 236 -992 l53 -113 -228 0
-228 0 -61 128 c-227 471 -288 962 -181 1446 31 142 112 373 180 516 l62 130
228 0 228 0 -53 -112z m762 105 c-203 -405 -288 -732 -288 -1108 0 -372 88
-708 288 -1097 2 -5 -78 -8 -178 -8 l-181 0 -59 123 c-160 338 -231 639 -231
983 1 247 32 443 107 677 38 115 104 278 155 379 l29 58 181 0 c99 0 179 -3
177 -7z m602 4 c0 -2 -22 -48 -49 -102 -113 -233 -189 -488 -221 -748 -18
-143 -8 -471 19 -613 42 -223 119 -450 221 -654 l50 -100 -170 0 -170 0 -44
88 c-335 670 -339 1367 -12 2020 l56 112 160 0 c88 0 160 -1 160 -3z m1425
-20 c-188 -139 -353 -322 -436 -481 l-34 -66 -438 0 -438 0 6 23 c43 150 126
370 185 486 l30 61 578 0 577 -1 -30 -22z m1598 -1 c361 -85 630 -284 781
-576 128 -249 149 -546 57 -812 -30 -88 -105 -225 -167 -307 l-56 -74 206
-206 c113 -114 206 -210 206 -214 0 -4 -148 -7 -329 -7 l-329 0 -58 69 -58 69
-46 -23 c-75 -38 -218 -85 -308 -100 -102 -18 -568 -21 -687 -4 -254 35 -475
137 -645 296 -145 136 -241 298 -297 499 -26 93 -28 111 -28 304 0 193 2 211
27 303 125 445 466 729 963 801 17 2 181 3 365 1 267 -2 349 -6 403 -19z
m-2128 -727 c-21 -66 -46 -219 -52 -315 -12 -212 30 -415 127 -609 94 -190
240 -364 406 -485 32 -23 63 -47 69 -51 5 -5 -244 -9 -562 -9 l-570 0 -67 146
c-162 355 -229 639 -229 974 0 143 16 339 30 363 2 4 195 7 429 7 l425 0 -6
-21z"/>
<path d="M4759 4025 c-203 -50 -350 -203 -394 -412 -54 -252 59 -519 263 -622
108 -54 156 -61 472 -61 157 0 291 4 297 8 9 6 1 19 -28 48 -22 21 -126 128
-231 237 l-190 197 333 -1 334 0 80 -99 c44 -54 83 -99 86 -99 3 -1 16 29 29
67 31 91 38 251 16 345 -46 196 -194 346 -387 392 -87 20 -596 20 -680 0z"/>
</g>
</svg>
