<svg width="56" height="56" clip-rule="evenodd" fill-rule="evenodd" image-rendering="optimizeQuality" shape-rendering="geometricPrecision" text-rendering="geometricPrecision" version="1.1" viewBox="0 0 3457.1 915.93" xmlns="http://www.w3.org/2000/svg">
	<defs>
		<style>.fil0{fill:#ffffff}</style>
	</defs>
	<g transform="matrix(.58422 0 0 .58422 718.67 182.24)" fill-rule="nonzero">
		<g transform="matrix(2.2637 0 0 2.2637 3011.1 -670.42)">
			<path class="fil0" fill="#ffffff" transform="matrix(1.7117 0 0 1.7117 -1230.1 -311.93)" d="m-277.03 182.26h110.03c-96.692 182.49-93.792 360.59 0 535.06h-110.03c-90.916-168.99-99.951-346.01 0-535.06zm347.81 0h77.564c-96.692 182.49-89.966 360.59 3.8383 535.06h-81.402c-92.052-171.82-101.99-352 0-535.06z" stroke-width=".58422"/>
			<path class="fil0" fill="#ffffff" transform="matrix(1.7117 0 0 1.7117 -1230.1 -311.93)" d="m-82.927 182.26h86.944c-96.692 182.49-93.792 360.59 0 535.06h-86.944c-90.916-168.99-99.937-346.01 0-535.06zm303.23 0 276.91 0.86406c-76.243 55.781-103.46 100.74-119.98 136.43l-210.77-0.0123c2.4929-13.403 24.879-86.351 53.844-137.28zm143.43 177.23c-41.331 136.17 6.4048 273.15 135.17 357.83h-275.02c-54.486-104.02-89.67-218.33-65.939-357.83z" stroke-width=".58422"/>
			<path class="fil0" fill="#ffffff" d="m419 915.89-49.325-57.774c-34.749 18.8-70.913 33.123-108.49 42.988-37.558 9.865-74.673 14.786-111.3 14.786h-126.81c-70.449 0-135.26-11.026-194.43-33.1-59.19-22.075-110.14-53.064-152.87-92.989s-76.321-88.066-100.74-144.42-36.63-118.82-36.63-187.39 12.21-130.8 36.63-186.69 58.006-104.04 100.74-144.42 93.685-71.632 152.87-93.706c59.169-22.075 124-33.102 194.43-33.102h126.81c70.448 0 135.28 11.513 194.45 34.517 59.19 23.025 110.14 54.246 152.88 93.706 42.734 39.439 76.32 85.954 100.74 139.48 24.42 53.55 36.63 110.84 36.63 171.89 0 58.239-10.33 112.48-30.99 162.74-20.68 50.253-48.86 95.585-84.538 135.97l174.72 177.53zm-242.34-222.62c14.09 0 29.109-1.395 45.079-4.225l-193.03-197.26h274.76l69.033 83.123c7.52-15.97 13.625-33.355 18.314-52.134s7.035-38.974 7.035-60.584c0-32.869-5.408-63.16-16.203-90.875-10.815-27.715-26.067-51.67-45.796-71.864s-43.22-35.932-70.449-47.212c-27.25-11.28-56.823-16.9-88.763-16.9h-170.49c-31.94 0-61.534 5.64-88.763 16.9-27.229 11.28-50.719 27.017-70.448 47.212s-35.214 44.381-46.494 72.56-16.9 59.17-16.9 92.989 5.64 64.808 16.9 92.987c11.28 28.18 26.764 52.367 46.494 72.561s43.22 35.7 70.448 46.494c27.229 10.816 56.824 16.202 88.763 16.202h170.49z" fill-rule="nonzero"/>
		</g>
	</g>
</svg>
