<svg xmlns="http://www.w3.org/2000/svg" id="svg18" width="256" height="56" fill-rule="evenodd" clip-rule="evenodd" image-rendering="optimizeQuality" shape-rendering="geometricPrecision" text-rendering="geometricPrecision" version="1.1" viewBox="0 0 3457.1 915.93">
	<defs/>
	<defs id="defs6">
		<style id="style4">
			.fil0{fill:#ffffff}
		</style>
	</defs>
	<g id="g16" fill="#ffffff" transform="matrix(.58422 0 0 .58422 718.67 182.237)">
		<path id="path8" d="M-1704.317.042h188.341c-165.506 312.36-160.542 617.222 0 915.852h-188.341c-155.62-289.25-171.084-592.253 0-915.852zm595.337 0h132.765c-165.507 312.36-153.994 617.222 6.57 915.852h-139.335c-157.564-294.11-174.568-602.52 0-915.852z" class="fil0"/>
		<path id="path10" d="M-1372.08.042h148.82c-165.507 312.36-160.543 617.222 0 915.852h-148.82c-155.62-289.25-171.061-592.253 0-915.852zm519.039 0l473.98 1.479C-509.565 97-556.144 173.956-584.429 235.047l-360.776-.021C-940.938 212.085-902.62 87.22-853.041.042zm245.503 303.362c-70.745 233.082 10.963 467.538 231.37 612.49h-470.747c-93.263-178.054-153.487-373.704-112.866-612.49z" class="fil0"/>
		<g id="g14" fill-rule="nonzero">
			<path id="path12" fill="#ffffff" fill-rule="nonzero" d="M419.004 915.894l-49.325-57.774c-34.749 18.8-70.913 33.123-108.493 42.988-37.558 9.865-74.673 14.786-111.302 14.786H23.077c-70.449 0-135.257-11.026-194.426-33.1-59.19-22.075-110.14-53.064-152.874-92.989-42.734-39.925-76.321-88.066-100.74-144.425-24.419-56.359-36.63-118.822-36.63-187.39 0-68.568 12.21-130.8 36.63-186.694 24.42-55.894 58.006-104.036 100.74-144.425 42.734-40.389 93.685-71.632 152.874-93.706C-112.18 11.09-47.35.063 23.077.063h126.807c70.448 0 135.278 11.513 194.446 34.517 59.19 23.025 110.14 54.246 152.875 93.706 42.734 39.439 76.32 85.954 100.74 139.482 24.42 53.55 36.63 110.837 36.63 171.886 0 58.239-10.33 112.485-30.99 162.74-20.68 50.253-48.86 95.585-84.538 135.974l174.717 177.526zM176.669 693.27c14.09 0 29.109-1.395 45.079-4.225L28.717 491.788h274.76l69.033 83.123c7.52-15.97 13.625-33.355 18.314-52.134 4.689-18.779 7.035-38.974 7.035-60.584 0-32.869-5.408-63.16-16.203-90.875-10.815-27.715-26.067-51.67-45.796-71.864-19.729-20.194-43.22-35.932-70.449-47.212-27.25-11.28-56.823-16.9-88.763-16.9H6.156c-31.94 0-61.534 5.64-88.763 16.9-27.229 11.28-50.719 27.017-70.448 47.212-19.729 20.195-35.214 44.381-46.494 72.56-11.28 28.179-16.9 59.17-16.9 92.989s5.64 64.808 16.9 92.987c11.28 28.18 26.764 52.367 46.494 72.561 19.73 20.194 43.22 35.7 70.448 46.494 27.229 10.816 56.824 16.202 88.763 16.202h170.492zm1479.356 222.624l-76.089-140.897H1150.19l104.268-195.84h221.21l-156.402-294.49-335.343 631.227h-271.93l467.792-848.213c25.37-45.078 61.998-67.618 109.908-67.618h56.359c47.909 0 84.538 22.54 109.887 67.618l467.79 848.213zm1075 0l-183.166-232.47h-216.985V469.25h315.613c33.82 0 61.534-10.562 83.123-31.708 21.61-21.145 32.404-49.556 32.404-85.256s-10.794-64.111-32.404-85.257c-21.61-21.124-49.324-31.707-83.123-31.707h-386.062v680.531H2015.26V0h631.227c52.599 0 100.973 8.217 145.122 24.652 44.149 16.435 82.426 39.692 114.83 69.751 32.404 30.059 57.542 66.224 75.392 108.493 17.85 42.269 26.764 88.763 26.764 139.503 0 70.448-16.9 131.983-50.719 184.581-33.819 52.598-79.384 92.524-136.672 119.774l231.075 269.12h-321.254zm1003.179-236.715c31.94 0 61.534-5.408 88.763-16.202 27.25-10.816 50.719-25.835 70.449-45.079 19.73-19.265 35.002-42.501 45.797-69.751 10.815-27.23 16.202-57.289 16.202-90.179 0-32.869-5.408-62.928-16.202-90.178-10.795-27.229-26.067-50.719-45.797-70.449-19.709-19.73-43.199-34.98-70.449-45.796-27.229-10.795-56.823-16.203-88.763-16.203h-166.267c-31.94 0-61.534 5.408-88.763 16.203-27.229 10.815-50.719 26.067-70.448 45.796-19.729 19.729-35.214 43.22-46.494 70.449-11.28 27.25-16.9 57.31-16.9 90.178 0 32.868 5.408 62.929 16.203 90.179 10.795 27.25 26.067 50.486 45.796 69.751 19.73 19.244 43.22 34.284 70.449 45.079 27.25 10.794 57.31 16.202 90.178 16.202h166.267zm-149.346 236.715c-70.449 0-135.257-11.026-194.426-33.1-59.19-22.075-110.14-53.064-152.874-92.989-42.734-39.925-76.321-88.066-100.74-144.425-24.419-56.359-36.63-118.822-36.63-187.39 0-68.568 12.21-130.8 36.63-186.694 24.42-55.894 58.006-104.036 100.74-144.425 42.734-40.389 93.685-71.632 152.874-93.706C3449.601 11.09 3514.43.063 3584.858.063h132.447c69.52 0 133.842 11.027 193.031 33.102 59.168 22.074 110.14 53.317 152.875 93.706s76.32 88.53 100.74 144.425c24.42 55.895 36.629 118.125 36.629 186.693 0 68.568-12.21 131.033-36.63 187.391-24.42 56.358-58.006 104.5-100.74 144.425-42.734 39.925-93.706 70.914-152.874 92.988-59.19 22.075-123.512 33.101-193.031 33.101zm708.71 0V679.18h684.776c17.85 0 32.405-5.408 43.685-16.202 11.28-10.816 16.9-26.067 16.9-45.797 0-19.73-5.641-35.214-16.9-46.494-11.28-11.28-25.835-16.9-43.685-16.9h-402.982c-42.27 0-81.475-6.822-117.66-20.426-36.165-13.625-67.154-32.404-92.989-56.359-25.835-23.955-46.029-52.831-60.583-86.65-14.554-33.819-21.842-71.4-21.842-112.718 0-41.34 7.287-79.13 21.842-113.415 14.555-34.285 34.749-63.647 60.583-88.066 25.834-24.419 56.824-43.22 92.988-56.359 36.165-13.16 75.392-19.73 117.66-19.73h696.037v235.3h-684.756c-17.85 0-32.172 5.176-42.987 15.506-10.795 10.33-16.202 25.37-16.202 45.078 0 18.78 5.407 33.82 16.202 45.079 10.815 11.28 25.137 16.9 42.987 16.9h402.962c43.22 0 82.658 6.822 118.357 20.426 35.7 13.625 66.689 32.637 92.988 57.077 26.3 24.42 46.726 53.782 61.28 88.066 14.554 34.284 21.843 71.631 21.843 112.02 0 42.27-7.288 80.546-21.842 114.83-14.554 34.284-34.981 63.88-61.28 88.764-26.299 24.884-57.29 43.916-92.989 57.077-35.699 13.161-75.138 19.73-118.357 19.73h-696.036z"/>
		</g>
	</g>
</svg>
